<svg viewBox="0 0 26 26" xmlns="http://www.w3.org/2000/svg"><path fill-rule="evenodd" clip-rule="evenodd" d="M17.4439 20.5448C17.4439 20.5448 16.5862 20.0578 16.4854 20.0005L6.31586 14.1921C6.11688 14.0791 6 13.8694 6 13.6426V4C6 4 6.85665 4.48353 6.94707 4.53226C7.14514 4.63974 7.27836 4.84893 7.27836 5.08941V13.2761L17.1256 18.9016C17.3346 19.0203 17.4501 19.238 17.4469 19.4607C17.4453 19.5649 17.4439 20.5448 17.4439 20.5448Z"></path><path fill-rule="evenodd" clip-rule="evenodd" d="M20 22C20 22 19.13 21.5053 19.0354 21.4507C18.8456 21.3408 18.7187 21.1366 18.7187 20.9029V12.7041L9.82433 7.62132L9.82484 12.1953C9.82484 12.5453 9.82108 13.2788 9.82108 13.2788C9.82108 13.2788 8.96625 12.7866 8.87168 12.7343C8.68035 12.6286 8.55154 12.4302 8.55141 12.1958V6.53832C8.55128 6.31169 8.6727 6.10571 8.87116 5.99246C9.06976 5.87908 9.31428 5.88113 9.51261 5.99464L19.6799 11.8002C19.8778 11.9134 19.997 12.1234 19.997 12.3495V20.9029C19.997 21.2528 20 22 20 22Z"></path><path fill-rule="evenodd" clip-rule="evenodd" d="M12.366 14.734C12.366 14.734 11.4939 14.2355 11.3959 14.1752C11.2148 14.0632 11.0948 13.8641 11.0948 13.6369V10.8901C11.0948 10.54 11.0956 9.80308 11.0956 9.80308C11.0956 9.80308 11.9614 10.2874 12.0557 10.3419C12.2459 10.4517 12.3731 10.6561 12.3731 10.8899V13.6368C12.3731 13.9867 12.366 14.734 12.366 14.734Z"></path><path fill-rule="evenodd" clip-rule="evenodd" d="M14.9148 16.1906C14.9148 16.1906 14.0469 15.6934 13.9508 15.6363C13.7646 15.5256 13.6406 15.3235 13.6406 15.0925V12.3456C13.6406 11.9956 13.6392 11.2517 13.6392 11.2517C13.6392 11.2517 14.5006 11.7412 14.5931 11.7929C14.788 11.9015 14.919 12.1084 14.919 12.3458V15.0926C14.919 15.4426 14.9148 16.1906 14.9148 16.1906Z"></path><path fill-rule="evenodd" clip-rule="evenodd" d="M17.4552 17.6419C17.4552 17.6419 16.5888 17.1461 16.4945 17.0918C16.3041 16.9821 16.1767 16.7777 16.1767 16.5435V13.7967C16.1767 13.4466 16.1754 12.6973 16.1754 12.6973C16.1754 12.6973 17.0305 13.1906 17.1211 13.2395C17.3203 13.3467 17.4549 13.5561 17.4549 13.7969V16.5436C17.4549 16.8936 17.4552 17.6419 17.4552 17.6419Z"></path></svg>
