<?xml version="1.0" standalone="no"?>
<!DOCTYPE svg PUBLIC "-//W3C//DTD SVG 20010904//EN" "http://www.w3.org/TR/2001/REC-SVG-20010904/DTD/svg10.dtd">
<svg xmlns="http://www.w3.org/2000/svg" viewBox="0 0 42 42" fill="none" style="border-radius: 10%">
	<rect width="42" height="42" fill="#60226D" />
	<path
		fill-rule="evenodd"
		clip-rule="evenodd"
		d="M27.0522 31.898C27.0522 31.898 25.8841 31.1946 25.7468 31.1118L11.8968 22.722C11.6258 22.5588 11.4667 22.2559 11.4667 21.9281V8C11.4667 8 12.6334 8.69843 12.7565 8.76883C13.0263 8.92407 13.2077 9.22623 13.2077 9.57359V21.3989L26.6187 29.5245C26.9033 29.6961 27.0607 30.0104 27.0563 30.3321C27.0541 30.4827 27.0522 31.898 27.0522 31.898Z"
		fill="white"
	/>
	<path
		fill-rule="evenodd"
		clip-rule="evenodd"
		d="M30.5333 34C30.5333 34 29.3485 33.2855 29.2197 33.2065C28.9612 33.0478 28.7883 32.7528 28.7883 32.4153V20.5726L16.675 13.2308L16.6757 19.8377C16.6757 20.3433 16.6706 21.4028 16.6706 21.4028C16.6706 21.4028 15.5064 20.6917 15.3776 20.6161C15.1171 20.4635 14.9416 20.1769 14.9415 19.8384V11.6665C14.9413 11.3391 15.1066 11.0416 15.3769 10.878C15.6474 10.7142 15.9804 10.7172 16.2505 10.8811L30.0973 19.2669C30.3669 19.4305 30.5293 19.7338 30.5293 20.0604V32.4153C30.5293 32.9207 30.5333 34 30.5333 34Z"
		fill="white"
	/>
	<path
		fill-rule="evenodd"
		clip-rule="evenodd"
		d="M20.1366 23.5047C20.1366 23.5047 18.9489 22.7846 18.8153 22.6975C18.5687 22.5358 18.4053 22.2481 18.4053 21.92V17.9523C18.4053 17.4467 18.4063 16.3822 18.4063 16.3822C18.4063 16.3822 19.5856 17.0818 19.714 17.1605C19.973 17.3191 20.1463 17.6144 20.1463 17.9521V21.9198C20.1463 22.4252 20.1366 23.5047 20.1366 23.5047Z"
		fill="white"
	/>
	<path
		fill-rule="evenodd"
		clip-rule="evenodd"
		d="M23.6078 25.6087C23.6078 25.6087 22.4258 24.8904 22.2949 24.808C22.0413 24.6481 21.8725 24.3562 21.8725 24.0225V20.0548C21.8725 19.5492 21.8705 18.4747 21.8705 18.4747C21.8705 18.4747 23.0437 19.1817 23.1697 19.2563C23.435 19.4133 23.6135 19.7121 23.6135 20.055V24.0227C23.6135 24.5283 23.6078 25.6087 23.6078 25.6087Z"
		fill="white"
	/>
	<path
		fill-rule="evenodd"
		clip-rule="evenodd"
		d="M27.0676 27.7049C27.0676 27.7049 25.8876 26.9889 25.7592 26.9103C25.4999 26.7519 25.3264 26.4566 25.3264 26.1183V22.1508C25.3264 21.6451 25.3246 20.5628 25.3246 20.5628C25.3246 20.5628 26.4892 21.2753 26.6125 21.3459C26.8838 21.5008 27.0672 21.8033 27.0672 22.151V26.1185C27.0672 26.6241 27.0676 27.7049 27.0676 27.7049Z"
		fill="white"
	/>
</svg>
